<svg xmlns="http://www.w3.org/2000/svg" xmlns:xlink="http://www.w3.org/1999/xlink" width="512" height="512" viewBox="0 0 512 512">
  <defs>
    <clipPath id="clip-Flake_Logo">
      <rect width="512" height="512"/>
    </clipPath>
  </defs>
  <g id="Flake_Logo" data-name="Flake Logo" clip-path="url(#clip-Flake_Logo)">
    <rect id="Rectangle_110" data-name="Rectangle 110" width="512" height="512" rx="80" fill="#2cb2ff"/>
    <path id="Logo" d="M.36,184H44.39V33.5H94.54V-1.52l-50.056.077A44.468,44.468,0,0,1,44.468-8.2c.065-1.1.214-2.682.461-4.4.141-.983.338-2.088.663-3.567.206-.944.548-2.269.966-3.615a37.668,37.668,0,0,1,1.954-4.972,33.11,33.11,0,0,1,2.716-4.68,27.841,27.841,0,0,1,2.513-3.089,27.639,27.639,0,0,1,4.715-4.009,28.149,28.149,0,0,1,5.658-2.9,32.938,32.938,0,0,1,4.394-1.338c.2-.049,1.655-.414,4.251-.792.766-.112,1.645-.221,2.926-.34.954-.09,2.023-.161,3.5-.205.855-.026,1.778-.031,3.062,0,.749.02,1.546.061,2.69.155.612.049,1.26.116,2.253.246.727.094,1.582.233,2.839.483.722.142,1.862.4,3.062.731a24.628,24.628,0,0,1,3.93,1.349c.615.262,1.3.585,2.316,1.131.439.235.9.5,1.644.965.278.173.564.359,1.114.738a25.255,25.255,0,0,1,2.188,1.7c.2.168.4.345.834.744.417.379.878.837,1.589,1.619.312.34.717.818,1.371,1.648.188.236.608.792,1.047,1.4.09.124.362.516.634.927.167.252.337.517.674,1.068.136.219.3.5.642,1.118.135.24.474.881.836,1.61.128.256.269.553.547,1.167.077.168.531,1.365,1.153,3.384.34,1.1.75,2.575,1.163,4.484.066.3.216,1.111.428,2.592.169,1.171.374,2.909.528,5.257l.034,10.969.014,7.926.055,141.91s-.253,4.158,0,10.3a103.968,103.968,0,0,0,1.142,11.779,65.4,65.4,0,0,0,2.164,9.416,56.208,56.208,0,0,0,3.1,7.5,46.484,46.484,0,0,0,6.218,9.824,50.545,50.545,0,0,0,7.489,7.251A45.774,45.774,0,0,0,142.2,213.6a53.552,53.552,0,0,0,7.922,3.721,63.139,63.139,0,0,0,8.409,2.519,74.294,74.294,0,0,0,9.238,1.493c1.854.192,3.936.33,6.489.4.7.02,3.962.078,8.426-.167,1.684-.092,3.606-.243,5.9-.515.966-.114,2.019-.262,3.409-.5a95.719,95.719,0,0,0,12-3.32l-2.109-34.969c-3.761,1.928-9.387,2.657-10.3,2.781-.7.1-1.715.2-2.812.283a42.948,42.948,0,0,1-5.336.038,39.279,39.279,0,0,1-4.881-.6,27.047,27.047,0,0,1-5.38-1.5,20.211,20.211,0,0,1-4.039-2.246,19.668,19.668,0,0,1-5.6-5.817,23.156,23.156,0,0,1-3-8.1,58.373,58.373,0,0,1-.977-11.3V10.641s.078-11.656-.136-15.816c-.193-4.419-.622-7.9-.63-7.981-.285-3.027-.842-5.522-1.172-7.578-.233-1.455-.569-2.758-.719-3.437a59.96,59.96,0,0,0-1.656-6.172c-.325-.979-.675-2.252-1.174-3.522-.569-1.449-1.218-3.187-2.013-4.869-.487-1.031-1.123-2.324-1.781-3.562-.416-.784-.972-1.822-1.547-2.812-.78-1.345-1.746-2.778-2.641-4.141s-1.9-2.55-2.768-3.71a30.517,30.517,0,0,0-2.795-3.2c-.92-.951-2.088-2.2-3.391-3.359-1.383-1.232-2.887-2.6-4.69-3.922-.764-.563-1.793-1.279-2.846-1.975-.829-.549-1.927-1.233-3.04-1.891-1.3-.77-2.887-1.628-4.48-2.426-1.446-.725-3.16-1.5-4.857-2.212-1.042-.436-2.422-.885-3.705-1.348-.874-.316-1.916-.572-3.006-.914-1.2-.377-2.584-.73-3.911-1.071-.607-.156-1.588-.378-2.386-.554-.824-.183-1.8-.364-2.656-.516-1.469-.261-2.576-.45-2.812-.484-.914-.132-2.1-.329-3.469-.484-1.993-.227-4.351-.426-6.781-.562-1.108-.063-2.512-.222-3.952-.255-1.218-.028-2.727-.035-4.235-.015-1.729.022-3.772.021-5.763.146-1.772.11-3.911.182-5.891.406-1.725.2-4.087.522-5.973.831-1.591.261-3.39.6-5.11.974-2.484.532-5.011,1.186-7.289,1.852a56.143,56.143,0,0,0-12.166,5c-1.018.5-2.318,1.179-3.65,1.938a62.5,62.5,0,0,0-5.553,3.573,57.418,57.418,0,0,0-4.588,3.657c-1.289,1.127-2.755,2.547-4.2,4.076a61.577,61.577,0,0,0-4.368,5.2c-.908,1.2-1.8,2.478-2.821,4.068-.995,1.544-2.093,3.439-3.088,5.353a74.3,74.3,0,0,0-3.4,7.583c-.692,1.787-1.3,3.565-1.928,5.608-.653,2.128-1.2,4.22-1.715,6.541-.524,2.342-.92,4.59-1.263,6.983-.277,1.929-.466,3.731-.62,5.652A67.462,67.462,0,0,0,.706-1.487l-31.055-.077.1,35.064H.625Z" transform="translate(169.349 184.158)" fill="#fff"/>
  </g>
</svg>
